<svg id="Layer_1" height="512" viewBox="0 0 256 256" width="512" xmlns="http://www.w3.org/2000/svg"><g><g><g><g><g><path d="m171.148 85.499v135.912c0 4.607 3.734 8.341 8.341 8.341h21.171c4.607 0 8.341-3.734 8.341-8.341v-135.912z" fill="#e63950"/></g><g><path d="m197.231 85.499v124.142c0 4.607-3.735 8.341-8.341 8.341h-17.743v3.428c0 4.607 3.734 8.341 8.341 8.341h21.171c4.607 0 8.341-3.734 8.341-8.341v-135.911z" fill="#d10028"/></g><g><path d="m54.486 144.211h-21.172c-4.607 0-8.341 3.734-8.341 8.341v68.859c0 4.607 3.734 8.341 8.341 8.341h21.171c4.607 0 8.341-3.734 8.341-8.341v-68.859c.001-4.607-3.734-8.341-8.34-8.341z" fill="#e63950"/></g><g><path d="m54.486 144.211h-3.428v65.43c0 4.607-3.735 8.341-8.341 8.341h-17.744v3.428c0 4.607 3.734 8.341 8.341 8.341h21.171c4.607 0 8.341-3.734 8.341-8.341v-68.859c.001-4.606-3.734-8.34-8.34-8.34z" fill="#d10028"/></g><g><path d="m103.21 124.268h-21.171c-4.607 0-8.341 3.734-8.341 8.341v88.801c0 4.607 3.734 8.341 8.341 8.341h21.171c4.607 0 8.341-3.734 8.341-8.341v-88.8c.001-4.607-3.734-8.342-8.341-8.342z" fill="#e63950"/></g><g><path d="m103.21 124.268h-3.428v85.373c0 4.607-3.734 8.341-8.341 8.341h-17.743v3.428c0 4.607 3.735 8.341 8.341 8.341h21.171c4.607 0 8.341-3.734 8.341-8.341v-88.801c.001-4.606-3.734-8.341-8.341-8.341z" fill="#d10028"/></g><g><path d="m151.935 94.764h-21.171c-4.607 0-8.341 3.734-8.341 8.341v118.306c0 4.607 3.734 8.341 8.341 8.341h21.171c4.607 0 8.341-3.734 8.341-8.341v-118.306c0-4.607-3.734-8.341-8.341-8.341z" fill="#e63950"/></g><g><path d="m151.935 94.764h-3.428v114.878c0 4.607-3.734 8.341-8.341 8.341h-17.743v3.428c0 4.607 3.734 8.341 8.341 8.341h21.171c4.607 0 8.341-3.734 8.341-8.341v-118.306c0-4.607-3.734-8.341-8.341-8.341z" fill="#d10028"/></g><g><path d="m225.797 85.499h-71.445c-4.29 0-6.749-4.887-4.192-8.332l35.723-48.13c2.087-2.812 6.297-2.812 8.384 0l35.723 48.13c2.556 3.445.097 8.332-4.193 8.332z" fill="#e63950"/></g><g><path d="m229.989 77.167-35.723-48.13c-1.131-1.524-2.886-2.222-4.588-2.094l28.541 38.454c2.557 3.445.098 8.332-4.192 8.332h-61.316l-2.551 3.438c-2.557 3.445-.098 8.332 4.192 8.332h71.445c4.29 0 6.749-4.887 4.192-8.332z" fill="#d10028"/></g><g><path d="m229.989 77.167-35.723-48.13c-.773-1.042-1.837-1.697-2.977-1.967l32.815 44.212c2.557 3.445.098 8.332-4.192 8.332h-70.749c-.373 2.933 1.855 5.885 5.189 5.885h71.445c4.29 0 6.749-4.887 4.192-8.332z" fill="#b7022d"/></g></g></g><g><g><path d="m105.495 111.327h-74.466c-1.885 0-3.414-1.528-3.414-3.414v-63.512c0-1.885 1.528-3.414 3.414-3.414h74.466c1.885 0 3.414 1.528 3.414 3.414v63.512c0 1.885-1.528 3.414-3.414 3.414z" fill="#377de2"/></g><g><path d="m105.495 40.987h-2.471v61.041c0 1.885-1.529 3.414-3.414 3.414h-71.995v2.471c0 1.885 1.529 3.414 3.414 3.414h74.466c1.885 0 3.414-1.528 3.414-3.414v-63.512c0-1.885-1.528-3.414-3.414-3.414z" fill="#2266d3"/></g><g><path d="m64.101 81.901h8.323v29.426h-8.323z" fill="#478cf7"/></g><g><path d="m68.262 80.211c17.796 0 33.448-7.056 42.508-17.731.515-.607.781-1.385.781-2.181v-15.898c0-1.885-1.528-3.414-3.414-3.414h-79.75c-1.885 0-3.414 1.528-3.414 3.414v15.898c0 .796.266 1.574.781 2.181 9.06 10.676 24.713 17.731 42.508 17.731z" fill="#478cf7"/></g><g><path d="m68.262 74.327c-17.796 0-33.448-7.056-42.508-17.731-.515-.607-.781-1.385-.781-2.181v5.885c0 .796.267 1.574.781 2.181 9.06 10.675 24.712 17.731 42.508 17.731s33.448-7.056 42.508-17.731c.515-.607.781-1.385.781-2.181v-5.885c0 .796-.266 1.574-.781 2.181-9.059 10.675-24.712 17.731-42.508 17.731z" fill="#2266d3"/></g><g><g><path d="m55.385 37.566h-7.344c-.667 0-1.207.541-1.207 1.207v2.213h9.759v-2.213c-.001-.666-.541-1.207-1.208-1.207z" fill="#ffa91a"/></g><g><path d="m55.385 37.566h-2.354c.667 0 1.207.54 1.207 1.207v2.213h2.354v-2.213c0-.666-.54-1.207-1.207-1.207z" fill="#f79219"/></g><g><path d="m88.484 37.566h-7.344c-.667 0-1.207.541-1.207 1.207v2.213h9.759v-2.213c0-.666-.541-1.207-1.208-1.207z" fill="#ffa91a"/></g><g><path d="m88.484 37.566h-2.354c.667 0 1.207.54 1.207 1.207v2.213h2.354v-2.213c0-.666-.54-1.207-1.207-1.207z" fill="#f79219"/></g></g><g><path d="m82.403 37.566h4.856c-.411-6.386-8.606-11.318-18.997-11.318s-18.587 4.932-18.998 11.318h4.857c.55-3.167 6.202-6.489 14.141-6.489s13.591 3.322 14.141 6.489z" fill="#377de2"/></g><g><path d="m64.101 40.969h8.322v31.65h-8.322z" fill="#377de2"/></g><g><g><path d="m74.551 81.901h-12.577c-.623 0-1.128-.505-1.128-1.128v-7.025c0-.623.505-1.128 1.128-1.128h12.577c.623 0 1.128.505 1.128 1.128v7.025c0 .622-.505 1.128-1.128 1.128z" fill="#ffc91d"/></g><g><path d="m72.117 78.337h-7.708c-.549 0-.994-.445-.994-.994v-1.16c0-.549.445-.994.994-.994h7.708c.549 0 .994.445.994.994v1.16c0 .549-.445.994-.994.994z" fill="#f79219"/></g></g></g></g><g><path d="m164.2 70.32c-.44 0-.851-.13-1.2-.39-.42-.32-.7-.79-.78-1.32-.08-.52.05-1.05.37-1.48.63-.85 1.94-1.05 2.8-.42.43.32.71.79.79 1.32.07.53-.06 1.06-.38 1.48-.37.51-.97.81-1.6.81zm4.76-6.42c-.43 0-.84-.14-1.19-.4-.88-.66-1.069-1.91-.41-2.79l16.28-21.95c.641-.86 1.94-1.05 2.8-.41.891.66 1.07 1.91.42 2.8l-16.29 21.94c-.381.51-.98.81-1.61.81z" fill="#e8566f"/></g></g></svg>